<svg width="231" height="32" viewBox="0 0 231 32" fill="none" xmlns="http://www.w3.org/2000/svg">
<path fill-rule="evenodd" clip-rule="evenodd" d="M0 32V0H32.0967V11.7323L27.8161 16L32.0967 20.2677V27.7323L27.8161 32H0ZM9.20253 19.6244V23.4646H22.5991L18.7474 19.6244H9.20253ZM19.3847 11.7323L22.5952 8.5315H9.20253V11.7323H19.3847ZM36.7033 0H68.8V11.7323L64.5194 16L68.8 20.2677V27.7323L64.5194 32H36.7033V0ZM45.9058 19.6244V23.4646H59.3024L55.4506 19.6244H45.9058ZM45.9058 11.7323H56.0919L59.3024 8.5315H45.9058V11.7323ZM81.6 0V8.53333H93.0144V32H102.189V8.53333H109.336L113.603 4.26667V0H81.6ZM209.744 4.26667L214.011 0H230.545V27.7333L226.278 32H221.371V8.53333H218.15L214.331 12.352V32H205.156V8.53333H201.615L198.116 12.032V32H188.942V8.53333L197.476 0H209.744V4.26667ZM148.806 6.10352e-06V8.53334H116.803V6.10352e-06H148.806ZM125.337 19.6267H144.219V11.7333H116.803V27.7333L121.07 32H148.806V23.4667H125.337V19.6267ZM161.341 6.10352e-06L152.807 8.53334V32H161.981V20.8693H175.635V32H180.542L184.809 27.7333V6.10352e-06H161.341ZM175.635 12.976H161.981V12.032L165.48 8.53334H175.635V12.976Z" fill="url(#paint0_linear_1004_1068)"/>
<defs>
<linearGradient id="paint0_linear_1004_1068" x1="34" y1="-1.47415e-05" x2="139.032" y2="85.5972" gradientUnits="userSpaceOnUse">
<stop stop-color="#FF0025"/>
<stop offset="1" stop-color="#F8E800"/>
</linearGradient>
</defs>
</svg>
